<?xml version="1.0" standalone="no"?><!DOCTYPE svg PUBLIC "-//W3C//DTD SVG 1.1//EN" "http://www.w3.org/Graphics/SVG/1.1/DTD/svg11.dtd"><svg t="1564538683045" class="icon" viewBox="0 0 1024 1024" version="1.1" xmlns="http://www.w3.org/2000/svg" p-id="3352" width="128" height="128" xmlns:xlink="http://www.w3.org/1999/xlink"><defs><style type="text/css"></style></defs><path d="M950.6 526.9L579.8 156c-37.4-37.4-98.2-37.4-135.6 0L73.4 526.9c-12.5 12.5-12.5 32.8 0 45.3s32.8 12.5 45.3 0l370.8-370.8c12.4-12.4 32.7-12.4 45.1 0l370.8 370.8c6.2 6.2 14.4 9.4 22.6 9.4s16.4-3.1 22.6-9.4c12.5-12.6 12.5-32.8 0-45.3z" p-id="3353"></path><path d="M800 512c-17.7 0-32 14.3-32 32v320c0 17.6-14.4 32-32 32h-96V608c0-52.9-43.1-96-96-96h-64c-52.9 0-96 43.1-96 96v288h-96c-17.6 0-32-14.4-32-32V544c0-17.7-14.3-32-32-32s-32 14.3-32 32v320c0 52.9 43.1 96 96 96h448c52.9 0 96-43.1 96-96V544c0-17.7-14.3-32-32-32zM448 896V608c0-17.6 14.4-32 32-32h64c17.6 0 32 14.4 32 32v288H448z" p-id="3354"></path></svg>